<?xml version="1.0" encoding="UTF-8"?>
<svg id="Layer_2" data-name="Layer 2" xmlns="http://www.w3.org/2000/svg" viewBox="0 0 495.23 347">
  <defs>
    <style>
      .cls-1 {
        fill: #0D9488;
      }
    </style>
  </defs>
  <g id="Layer_1-2" data-name="Layer 1">
    <g>
      <path class="cls-1" d="m311.65,285.54c0-11.55,2.02-22.66,5.73-33.09,2.39-6.72,5.5-13.16,9.23-19.24-12.05,2.08-24.42,4.48-37.06,7.18-33.32,7.13-68.5,16.4-104.56,27.8-40.19,12.7-77.99,26.94-112.23,41.95,27.08-6.67,59.31-10.53,93.91-10.5,50.91.04,96.7,8.48,128.44,21.9,17.08,7.22,30.1,15.88,37.65,25.46-7.77-10.18-13.66-21.6-17.22-33.9-2.55-8.8-3.91-18.03-3.9-27.56Z"/>
      <path class="cls-1" d="m495.23,194.44v14.04c-.8-.22-1.6-.42-2.42-.62-16.09-3.96-36.23-5.91-59.55-5.88-8.69.01-17.81.31-27.34.87-18.38,1.09-38.24,3.2-59.25,6.32-24.48,3.64-50.52,8.64-77.62,15.02-27.13,6.37-55.31,14.1-84.04,23.18-69.87,22.07-132.52,48.8-181.8,76.16-1.08.6-2.15,1.2-3.21,1.79.83-.63,1.68-1.27,2.53-1.9,49.87-37.17,134.63-82.12,234.39-121.86,6.52-2.61,13.02-5.14,19.47-7.61,42.57-16.33,83.49-30,120.89-40.64l-1.54-1.16-29.66-22.39-8.8-6.64L174.16,0l275.12,127.47,12.54,5.8c-7.34,1.32-14.98,2.82-22.89,4.53,33.82,11.79,56.32,32.75,56.3,56.64Z"/>
    </g>
  </g>
</svg>
